{"glyphs":{"0":{"ha":844,"x_min":39,"x_max":801,"o":"m 753 855 l 750 855 q 623 1008 715 948 q 415 1077 531 1069 q 271 1039 340 1083 q 157 942 236 1017 q 44 471 39 752 q 99 255 68 331 q 233 74 146 143 q 458 3 346 3 q 534 12 497 3 q 645 75 594 27 q 718 181 697 123 q 801 575 801 357 q 753 856 801 730 l 753 855 m 462 719 q 466 640 466 679 q 432 350 466 560 q 411 332 426 332 l 403 338 q 387 532 387 453 q 421 726 387 650 q 444 741 428 741 q 464 718 467 741 l 462 719 "},"1":{"ha":822,"x_min":159,"x_max":685,"o":"m 685 535 l 685 534 q 677 769 682 719 q 611 984 662 899 q 455 1088 550 1088 q 379 1070 415 1088 q 316 1032 359 1061 q 238 974 257 993 q 159 769 159 893 q 162 724 159 757 q 242 659 181 663 l 268 659 q 283 647 283 662 q 261 532 274 636 q 245 389 253 464 q 231 238 231 261 q 317 44 231 128 q 432 0 362 0 q 551 30 498 0 q 626 117 610 63 q 656 266 632 123 q 684 535 685 436 l 685 535 "},"2":{"ha":844,"x_min":75,"x_max":765,"o":"m 743 679 q 746 715 746 696 q 688 918 748 813 q 516 1068 618 1039 q 404 1083 463 1083 q 125 957 240 1083 q 79 818 75 901 q 177 709 97 737 q 229 703 196 703 q 402 749 331 703 l 415 742 q 309 659 413 742 q 155 489 195 568 q 83 268 82 343 q 106 162 84 219 q 191 61 132 97 q 377 5 255 23 q 556 12 501 5 q 730 80 664 26 q 765 169 765 110 q 705 291 765 255 q 598 310 674 310 q 516 307 577 310 q 443 304 455 304 l 440 319 q 632 451 553 355 q 743 679 711 547 "},"3":{"ha":844,"x_min":71,"x_max":772,"o":"m 648 569 q 772 783 772 635 q 769 825 772 805 q 626 1014 756 922 q 387 1088 523 1088 q 229 1051 295 1088 q 71 859 71 965 q 110 771 71 812 q 192 731 150 731 q 249 749 197 731 q 325 765 300 767 q 364 727 357 754 q 302 667 361 686 q 214 630 225 641 q 191 565 191 607 q 196 528 191 543 q 240 471 200 486 q 317 456 291 460 q 370 410 359 447 q 320 355 365 355 q 255 369 306 355 q 187 383 203 383 q 157 378 172 383 q 128 354 142 373 q 105 317 120 344 q 93 241 94 283 q 139 102 91 162 q 374 8 214 8 q 505 25 438 8 q 669 118 596 46 q 758 274 741 191 q 769 372 769 327 q 699 536 769 483 q 664 547 693 542 q 650 569 644 551 l 648 569 "},"4":{"ha":844,"x_min":31,"x_max":813,"o":"m 813 402 q 807 479 813 462 q 726 546 791 535 q 760 787 760 674 q 724 949 760 892 q 569 1068 677 1025 q 463 1081 520 1081 q 304 1033 349 1081 q 121 728 221 945 q 65 592 83 637 q 31 447 31 507 q 87 310 31 369 q 324 246 163 248 q 334 207 334 237 q 335 170 334 173 q 437 15 354 45 q 513 3 471 3 q 696 124 666 3 q 705 253 705 162 q 748 295 705 295 q 812 402 812 323 l 813 402 m 347 554 q 370 643 340 581 q 426 750 407 715 q 434 622 434 669 q 421 542 434 575 q 389 527 414 527 q 346 554 354 527 l 347 554 "},"5":{"ha":844,"x_min":82,"x_max":761,"o":"m 738 963 q 650 1060 712 1025 q 508 1092 588 1095 q 210 1021 335 1085 q 116 895 140 986 q 89 730 108 839 q 83 630 83 664 q 182 430 82 482 q 217 422 199 422 q 268 432 227 422 q 319 441 308 441 q 372 418 351 441 q 374 365 381 374 q 291 321 346 325 q 189 317 223 319 q 110 196 112 316 q 163 63 109 109 q 312 7 206 18 q 373 5 325 5 q 694 153 577 5 q 761 369 761 237 q 723 549 761 467 q 434 669 617 677 q 428 681 428 675 q 432 701 428 689 q 434 718 436 712 q 436 758 438 728 q 443 795 433 784 l 507 761 q 553 756 528 756 q 727 848 641 756 q 748 918 748 878 q 738 963 748 940 "},"6":{"ha":844,"x_min":79,"x_max":765,"o":"m 673 99 q 738 215 711 135 q 765 377 765 295 q 658 625 765 539 q 538 658 617 658 q 451 651 501 658 q 403 647 408 645 q 539 763 523 746 q 622 925 622 847 q 575 1032 622 987 q 460 1077 528 1077 q 392 1066 429 1077 q 151 813 238 1020 q 79 445 79 643 q 86 342 79 387 q 297 39 120 117 q 448 3 380 3 q 671 99 568 3 l 673 99 m 443 428 l 441 428 q 400 272 438 339 q 370 263 377 259 q 358 340 357 279 q 365 402 362 381 q 391 449 369 436 q 430 444 425 445 q 443 428 441 440 "},"7":{"ha":844,"x_min":102,"x_max":742,"o":"m 738 739 l 738 737 q 742 806 742 775 q 666 1008 742 941 q 402 1081 584 1080 q 251 1054 380 1081 q 105 896 140 1001 q 102 859 102 871 q 248 688 102 688 q 391 711 286 688 q 398 692 408 703 q 278 495 336 650 q 221 217 221 340 q 245 90 221 139 q 408 11 298 11 q 452 14 422 11 q 589 114 535 34 q 655 308 643 193 q 696 529 660 362 q 738 739 733 696 "},"8":{"ha":844,"x_min":60,"x_max":784,"o":"m 701 101 q 784 315 784 200 q 697 515 784 417 q 654 534 693 520 q 609 560 615 549 q 704 667 667 596 q 741 814 741 738 q 707 942 741 891 q 654 1005 679 974 q 591 1050 621 1038 q 411 1084 502 1084 q 223 1028 312 1084 q 68 748 68 930 q 112 610 68 666 q 154 581 123 596 q 218 557 173 573 q 97 440 116 474 q 60 302 60 376 q 131 103 60 196 q 398 1 226 1 q 568 19 474 1 q 701 101 645 34 m 445 828 l 448 828 q 383 662 459 738 q 362 699 364 671 q 364 749 364 682 q 381 806 370 768 q 423 848 395 839 q 445 828 445 850 m 440 384 q 448 343 448 365 q 433 286 448 319 q 370 231 395 240 q 359 256 361 245 q 400 403 353 353 q 441 383 430 403 l 440 384 "},"9":{"ha":844,"x_min":52,"x_max":791,"o":"m 782 572 q 791 722 791 671 q 733 938 791 858 q 528 1080 647 1057 q 445 1088 487 1088 q 167 961 274 1088 q 87 839 120 915 q 53 689 54 764 q 76 566 52 622 q 159 458 102 507 q 281 392 215 410 q 346 389 298 388 q 268 330 295 358 q 203 166 203 261 q 211 95 203 128 q 259 36 219 61 q 344 8 298 11 q 625 163 523 -4 q 783 572 745 359 l 782 572 m 475 771 q 483 726 483 746 q 455 633 482 673 q 410 624 440 611 q 389 652 394 630 q 387 693 387 667 q 429 809 387 783 q 444 814 436 814 q 477 771 462 814 l 475 771 "}," ":{"ha":381,"x_min":0,"x_max":0,"o":""},"!":{"ha":502,"x_min":48,"x_max":458,"o":"m 430 1043 q 325 1115 402 1089 q 208 1133 233 1133 q 161 1127 182 1133 q 125 1099 140 1121 q 105 1065 118 1091 l 102 1069 q 80 903 80 995 q 88 757 80 855 q 95 607 95 659 q 91 519 95 560 q 129 383 97 415 q 240 343 167 343 q 286 347 261 343 q 379 403 366 358 q 411 670 381 497 q 434 812 410 718 q 458 948 458 906 q 432 1044 458 1002 l 430 1043 m 373 226 q 294 298 351 278 q 188 316 270 306 q 48 196 76 291 q 50 140 52 159 l 50 140 q 157 -12 61 38 q 208 -15 182 -15 q 377 53 327 -15 q 394 139 394 97 q 373 226 394 187 "},"\"":{"ha":581,"x_min":95,"x_max":553,"o":"m 290 1093 q 230 1125 268 1125 q 143 1110 240 1125 q 95 1046 95 1097 q 102 994 95 1027 q 112 940 110 949 q 135 888 116 907 q 176 862 144 880 q 196 858 187 858 q 245 878 214 858 q 298 1013 290 967 q 290 1092 312 1061 l 290 1093 m 528 1092 q 468 1123 507 1123 q 381 1108 478 1123 q 334 1044 334 1096 q 340 993 334 1025 q 350 938 349 948 q 373 886 354 906 q 414 861 383 878 q 436 856 425 856 q 485 877 453 856 q 536 1012 528 969 q 530 1091 553 1058 l 528 1092 "},"#":{"ha":647,"x_min":75,"x_max":580,"o":"m 297 844 l 358 844 l 361 782 l 298 783 l 297 844 m 308 666 q 347 671 338 671 q 357 639 355 671 q 365 579 359 596 q 410 547 377 547 q 426 549 418 547 q 477 632 477 558 q 472 674 477 654 q 539 677 536 677 q 577 734 580 688 q 572 771 576 767 q 481 790 554 794 l 475 846 q 524 846 531 846 q 569 862 553 847 q 579 903 579 885 q 543 955 579 934 q 477 957 522 967 q 426 1080 471 1080 q 351 960 355 1080 l 297 960 q 290 1043 293 1033 q 275 1069 282 1057 q 234 1083 263 1085 q 187 1031 199 1078 q 180 960 182 1010 q 123 957 151 959 q 80 910 86 948 q 112 850 75 865 q 180 839 129 842 q 182 782 182 801 q 114 769 127 778 q 82 720 80 745 q 124 670 83 679 q 184 669 154 670 q 195 595 191 607 q 248 554 208 550 q 286 564 278 557 q 308 666 312 587 "},"$":{"ha":251,"x_min":46,"x_max":279,"o":"m 276 763 q 246 817 263 806 q 187 842 242 821 q 154 869 154 854 q 162 886 150 880 q 196 886 176 892 q 241 874 238 874 q 267 888 256 874 q 278 920 278 903 q 261 945 275 934 q 211 967 218 967 q 196 965 202 967 q 192 982 192 974 q 203 1040 196 1016 q 189 1068 203 1055 q 155 1078 172 1078 q 127 1065 135 1078 q 112 1021 112 1040 q 129 963 112 1008 q 75 935 101 961 q 46 885 49 908 q 78 814 46 836 q 133 788 109 798 q 166 761 166 775 q 144 735 166 735 q 113 746 139 735 q 80 757 87 757 q 57 743 67 757 q 46 715 46 728 q 67 676 46 700 q 131 652 89 652 q 109 517 109 571 q 114 448 109 487 q 165 365 125 365 q 178 368 170 365 q 223 432 223 388 q 202 521 223 448 q 181 615 181 594 q 185 648 178 633 q 256 692 230 652 q 279 763 279 726 l 276 763 "},"%":{"ha":1148,"x_min":48,"x_max":1097,"o":"m 1078 1095 q 1033 1119 1063 1110 q 983 1136 1009 1127 q 895 1107 938 1136 q 817 1043 877 1095 q 225 368 497 641 q 109 257 166 313 q 48 121 48 191 q 54 71 48 97 q 177 -14 84 -14 q 291 30 248 -14 q 515 286 380 117 q 731 551 684 497 q 926 745 829 648 q 1084 956 1048 867 q 1097 1024 1097 989 q 1078 1093 1097 1065 l 1078 1095 m 211 1112 q 75 942 75 1065 q 82 886 75 916 q 287 754 109 771 q 443 831 391 754 q 481 967 481 889 q 475 1010 481 995 q 398 1097 453 1068 q 285 1125 347 1125 q 211 1114 245 1125 l 211 1112 m 794 361 q 652 184 652 312 q 660 125 652 157 q 738 20 678 54 q 874 -15 784 -5 q 1035 65 982 -15 q 1076 208 1076 127 q 1069 255 1076 238 q 989 344 1046 313 q 873 373 937 373 q 794 361 831 373 "},"&":{"ha":669,"x_min":64,"x_max":613,"o":"m 161 546 q 64 379 64 494 q 65 346 64 355 q 178 196 78 267 q 366 140 257 142 q 489 167 437 139 q 613 319 611 234 q 583 388 613 357 q 520 419 554 419 q 474 406 513 419 q 414 394 434 392 q 383 422 392 395 q 433 470 387 455 q 502 498 494 490 q 520 549 520 516 q 516 577 520 565 q 482 622 512 613 q 451 627 471 624 q 421 633 430 630 q 380 671 388 644 q 418 714 383 714 q 470 703 430 714 q 523 692 511 692 q 569 715 556 692 q 598 803 598 749 q 561 912 598 866 q 376 986 502 986 q 146 900 233 986 q 65 700 64 820 q 123 572 67 613 q 148 564 124 569 q 161 546 165 561 m 325 1196 q 278 1104 286 1186 q 351 1032 278 1032 q 376 1036 366 1032 q 421 1115 421 1055 q 365 1201 421 1181 q 359 1202 365 1205 q 351 1204 353 1200 q 324 1197 327 1197 l 325 1196 m 418 -45 q 411 41 430 -11 q 346 72 389 72 q 290 44 300 72 q 281 1 281 26 q 291 -57 281 -26 q 381 -93 319 -101 q 418 -45 408 -72 "},"'":{"ha":287,"x_min":46,"x_max":332,"o":"m 309 1091 q 234 1122 286 1122 q 142 1110 223 1122 q 74 1038 94 1096 q 50 933 61 984 q 72 871 46 900 q 123 842 98 842 q 142 847 129 842 q 163 854 155 852 q 319 1017 279 941 q 321 1075 332 1059 q 309 1091 309 1091 "},"(":{"ha":565,"x_min":42,"x_max":522,"o":"m 507 1072 q 395 1148 485 1148 q 195 1021 275 1148 q 42 500 42 782 q 68 290 42 391 q 117 176 103 215 q 180 71 125 166 q 268 -11 215 5 q 330 -20 297 -20 q 467 37 418 -20 q 505 131 505 82 q 462 257 505 176 q 408 387 414 344 q 381 542 381 460 q 515 937 381 719 q 522 987 522 957 q 505 1072 522 1038 l 507 1072 "},")":{"ha":553,"x_min":38,"x_max":511,"o":"m 406 968 q 344 1088 376 1028 q 245 1160 304 1160 q 217 1156 231 1160 q 41 1035 72 1122 q 65 919 38 980 q 125 817 80 889 q 185 584 185 722 q 142 310 185 471 q 102 238 124 286 q 64 165 79 187 q 76 87 75 95 q 114 19 89 45 q 204 -19 143 -19 q 286 -4 242 -19 q 444 227 411 105 q 511 564 511 377 q 404 968 511 802 l 406 968 "},"*":{"ha":632,"x_min":91,"x_max":551,"o":"m 188 1081 q 166 1024 166 1048 q 195 971 166 997 q 253 919 223 945 q 197 928 237 918 q 142 938 158 938 q 91 876 94 938 q 143 820 95 820 q 196 829 162 820 q 246 844 240 843 q 172 722 172 767 q 215 670 172 688 q 231 666 223 666 q 321 813 289 666 q 357 724 350 738 q 418 671 384 671 q 445 679 432 671 q 472 727 472 697 q 398 842 472 784 q 489 827 467 827 q 549 882 546 827 q 504 945 551 945 q 456 940 489 945 q 394 930 413 933 q 470 1029 470 998 q 443 1081 470 1053 q 410 1097 426 1097 q 351 1035 380 1097 q 317 948 334 991 q 227 1096 278 1096 q 189 1081 210 1096 l 188 1081 "},"+":{"ha":629,"x_min":29,"x_max":599,"o":"m 423 734 q 394 803 408 769 q 332 842 372 840 q 286 827 310 835 q 246 803 261 818 q 199 673 199 754 q 204 610 199 644 q 124 603 173 598 q 87 587 117 596 q 54 564 63 579 q 29 477 29 513 q 35 443 29 458 q 99 379 44 394 q 197 362 148 370 q 196 313 199 344 q 193 263 193 276 q 238 166 193 195 q 293 154 259 153 q 350 153 336 155 q 419 253 413 210 q 426 319 426 295 l 426 319 q 436 370 426 353 q 513 384 474 377 q 577 418 553 391 q 599 500 599 451 q 581 587 599 546 q 504 621 560 621 q 452 618 493 621 q 425 735 429 694 l 423 734 "},",":{"ha":301,"x_min":27,"x_max":338,"o":"m 297 173 q 181 215 257 215 q 79 189 123 215 q 27 60 27 117 q 29 35 27 48 q 139 -45 53 -27 q 128 -91 128 -71 q 151 -150 128 -123 q 187 -159 165 -159 q 225 -159 227 -159 q 324 -50 282 -151 q 338 46 338 1 q 298 173 338 124 l 297 173 "},"-":{"ha":576,"x_min":50,"x_max":543,"o":"m 513 610 q 443 639 487 633 q 364 644 403 641 q 233 633 336 636 q 106 600 150 632 q 50 498 50 573 q 52 463 50 485 q 54 426 54 434 q 80 391 60 403 q 121 372 83 389 q 218 372 157 373 q 319 370 301 370 q 494 389 429 370 q 527 425 516 400 q 541 468 530 432 q 543 504 543 486 q 512 610 543 565 l 513 610 "},".":{"ha":423,"x_min":41,"x_max":374,"o":"m 153 276 q 41 147 41 237 q 49 93 41 123 q 118 15 64 34 q 230 -4 144 4 q 346 49 309 -4 q 374 146 374 89 q 368 195 374 177 q 214 286 331 286 q 151 276 180 286 l 153 276 "},"/":{"ha":660,"x_min":12,"x_max":640,"o":"m 541 1095 q 500 1110 527 1106 q 458 1117 467 1112 q 315 990 376 1107 q 54 309 140 531 q 12 136 12 195 q 76 4 12 53 q 161 -15 110 -15 q 272 35 241 -15 q 505 569 425 350 q 594 787 549 678 q 635 1021 640 918 q 539 1095 614 1084 l 541 1095 "},":":{"ha":426,"x_min":56,"x_max":391,"o":"m 169 754 q 56 621 56 715 q 64 571 56 598 q 136 489 84 507 q 246 475 148 485 q 362 527 325 475 q 391 624 391 566 q 384 673 391 655 q 230 764 347 764 q 167 754 196 764 l 169 754 m 294 270 q 225 286 261 286 q 124 260 177 286 q 75 208 94 245 q 56 132 56 172 q 60 102 56 116 q 118 15 72 56 q 207 -7 155 -7 q 320 15 260 -7 q 387 140 387 59 q 384 173 387 155 q 350 238 370 218 q 295 270 338 249 l 294 270 "},";":{"ha":340,"x_min":49,"x_max":379,"o":"m 52 660 q 49 621 49 640 q 106 498 49 541 q 233 464 157 460 q 351 520 312 468 q 379 610 379 575 q 370 650 379 632 q 295 720 347 701 q 196 742 272 730 q 52 660 83 719 m 324 215 q 208 257 285 257 q 106 231 150 257 q 54 102 54 159 q 56 78 54 90 q 166 -3 80 15 q 155 -49 155 -29 q 178 -108 155 -80 q 212 -117 191 -117 q 251 -117 253 -117 q 351 -8 309 -109 q 365 89 365 44 q 325 215 365 166 l 324 215 "},"<":{"ha":453,"x_min":0,"x_max":0,"o":""},"=":{"ha":647,"x_min":49,"x_max":579,"o":"m 534 734 l 321 743 q 317 742 320 742 q 310 746 315 742 q 302 750 305 750 q 297 743 300 750 q 222 743 276 742 q 148 742 176 746 q 83 715 110 735 q 53 662 52 692 q 125 524 49 564 q 358 513 281 512 q 468 515 414 515 q 564 564 535 520 q 573 637 573 605 q 534 734 573 705 m 549 407 q 517 432 532 419 q 478 443 497 445 q 195 423 344 419 q 89 392 114 410 q 64 349 76 370 q 50 302 50 323 q 63 267 50 283 q 158 208 89 215 q 278 200 218 204 q 395 212 310 211 q 508 227 475 214 q 573 316 562 249 q 550 408 579 350 l 549 407 "},">":{"ha":453,"x_min":0,"x_max":0,"o":""},"?":{"ha":799,"x_min":14,"x_max":779,"o":"m 745 942 q 379 1084 677 1091 q 323 1074 359 1084 q 271 1065 286 1063 q 22 854 101 1017 q 94 678 14 722 q 204 647 153 647 q 249 652 226 647 q 321 696 290 663 q 381 764 353 730 l 391 753 q 308 578 388 688 q 229 410 229 468 q 274 305 229 361 q 317 295 295 301 q 365 293 344 290 q 512 316 497 310 q 610 414 592 340 q 730 671 622 592 q 779 795 779 716 q 743 942 779 863 l 745 942 m 596 173 q 438 259 554 259 q 287 222 359 259 q 217 76 217 158 q 225 26 217 50 q 403 -71 271 -71 q 591 30 523 -71 q 607 123 607 99 q 596 174 607 151 l 596 173 "},"@":{"ha":1144,"x_min":102,"x_max":1044,"o":"m 837 334 q 995 384 946 334 q 1042 545 1044 434 q 886 866 1039 746 q 560 974 749 974 q 240 833 377 974 q 102 509 102 693 q 244 178 102 321 q 573 34 385 34 q 750 79 637 34 q 878 182 878 131 q 847 246 878 218 q 779 275 816 275 q 705 246 767 275 q 591 218 643 218 q 373 294 460 218 q 281 502 281 373 q 365 703 281 615 q 561 791 449 791 q 718 773 677 791 q 836 660 765 753 q 873 530 873 611 q 836 470 873 470 q 778 530 806 470 q 726 639 752 584 q 643 697 689 697 q 615 674 618 697 q 581 651 611 651 q 541 655 568 651 q 500 659 513 659 q 398 603 443 659 q 354 487 354 547 q 561 310 354 350 q 579 309 569 309 q 646 325 613 309 q 689 366 679 340 q 693 396 690 380 q 708 411 696 411 q 731 388 718 411 q 750 359 743 365 q 837 334 786 334 m 624 478 q 575 436 624 436 q 515 455 541 436 q 489 508 489 474 q 502 539 489 526 q 532 553 515 553 q 592 529 560 553 q 624 478 624 505 "},"A":{"ha":893,"x_min":41,"x_max":851,"o":"m 829 120 q 851 361 851 233 q 776 866 851 579 q 707 1006 756 946 q 460 1108 624 1108 q 227 1004 308 1108 q 83 696 124 867 q 44 361 54 575 q 41 290 41 305 q 157 5 41 63 l 159 3 q 251 -11 214 -11 q 366 45 327 -11 q 398 161 398 105 q 392 197 395 185 q 516 203 462 206 q 534 112 516 147 q 569 60 539 99 q 678 29 611 29 q 749 37 715 29 q 829 118 817 53 l 829 120 m 485 477 q 458 472 481 477 q 430 467 436 467 q 407 482 414 467 q 417 626 403 500 q 443 814 425 699 q 471 821 462 831 q 485 477 494 587 "},"B":{"ha":824,"x_min":48,"x_max":783,"o":"m 776 328 q 731 489 783 415 q 590 579 678 562 q 682 637 660 617 q 742 757 731 684 q 664 963 738 882 q 441 1073 591 1044 q 357 1078 413 1078 q 69 997 165 1078 q 48 493 48 952 q 68 80 48 106 q 344 0 153 0 q 471 11 410 0 q 663 102 610 61 q 776 328 764 180 m 430 798 q 433 778 433 784 q 392 670 433 741 l 332 632 q 331 812 340 731 q 349 829 339 828 q 369 832 351 832 q 429 797 422 832 l 430 798 m 404 336 q 380 287 389 300 q 317 256 358 261 q 315 298 315 290 q 323 368 315 310 q 327 433 328 415 q 372 451 349 451 q 414 388 414 451 q 404 335 414 366 l 404 336 "},"C":{"ha":792,"x_min":38,"x_max":753,"o":"m 752 350 q 674 466 752 443 q 629 475 651 475 q 524 407 600 475 q 415 338 447 339 q 383 388 385 350 q 380 466 380 426 q 394 761 380 472 l 407 786 q 428 765 425 787 q 433 733 432 737 q 602 647 507 637 q 700 716 662 654 q 727 818 728 763 q 700 925 726 877 q 578 1051 656 1004 q 410 1097 500 1097 q 265 1067 332 1097 q 162 987 197 1036 q 68 771 90 888 q 39 498 39 618 q 210 74 38 225 q 421 1 291 1 q 602 41 517 1 q 753 310 753 112 q 752 330 753 316 q 752 349 752 342 l 752 350 "},"D":{"ha":772,"x_min":45,"x_max":727,"o":"m 727 598 q 611 919 727 767 q 456 1050 542 1010 q 270 1074 374 1074 q 50 1001 84 1074 q 45 824 45 948 q 69 125 45 489 q 159 42 74 74 q 350 16 244 10 q 645 259 546 72 q 727 598 727 410 m 387 720 q 428 599 428 670 q 401 492 428 545 q 335 411 374 438 q 316 733 331 636 q 330 738 317 733 q 350 743 342 743 q 387 720 368 743 "},"E":{"ha":699,"x_min":41,"x_max":656,"o":"m 651 662 q 535 726 605 726 q 436 694 475 726 q 407 719 411 700 q 411 784 408 727 q 422 850 413 829 q 452 848 433 848 q 573 885 530 848 q 617 980 617 922 q 609 1029 617 1008 q 483 1083 590 1083 q 372 1070 430 1083 l 144 1047 q 71 881 89 1009 q 42 489 41 660 q 99 98 44 191 q 177 22 151 34 q 315 -7 238 -7 q 466 30 402 -7 q 579 131 538 71 q 613 251 620 192 q 551 324 607 302 q 460 324 516 339 q 432 373 432 340 q 441 460 444 444 q 482 459 471 463 q 596 498 543 452 q 655 620 655 547 q 651 662 656 641 "},"F":{"ha":675,"x_min":39,"x_max":637,"o":"m 618 598 q 501 679 575 678 q 454 669 494 679 q 404 658 414 658 q 385 664 392 658 q 402 754 402 723 q 468 784 408 768 q 543 810 534 801 q 607 937 607 850 q 542 1059 607 1002 q 383 1078 482 1078 q 129 1033 199 1078 q 49 916 64 1002 q 39 765 44 816 l 63 302 q 158 39 71 128 q 295 7 252 7 q 403 153 403 7 q 395 253 403 167 q 389 357 388 332 q 504 366 479 366 q 605 447 576 383 q 637 534 637 500 q 618 599 637 564 l 618 598 "},"G":{"ha":784,"x_min":39,"x_max":745,"o":"m 741 831 l 738 831 q 568 1054 727 945 q 425 1085 502 1085 q 266 1048 336 1085 q 101 824 162 980 q 39 481 39 667 q 76 234 39 342 q 178 71 113 125 q 392 -7 272 -7 q 466 -1 423 -7 q 617 78 549 10 q 709 225 677 138 q 739 379 739 304 q 714 481 739 443 q 595 520 674 520 q 518 515 576 520 q 447 511 460 511 l 413 483 q 392 410 389 444 q 408 388 394 395 q 436 380 414 383 q 451 344 458 364 q 376 308 436 313 q 353 349 354 330 q 354 384 354 334 q 441 754 354 534 l 449 756 q 463 727 463 745 l 463 689 q 576 610 492 614 q 715 670 669 606 q 745 784 745 711 q 741 831 745 807 "},"H":{"ha":866,"x_min":34,"x_max":831,"o":"m 87 994 q 34 656 34 916 q 38 374 34 539 q 68 166 41 260 q 125 45 91 82 q 229 1 166 1 q 319 12 294 1 q 372 65 355 29 q 376 136 383 90 q 357 233 364 206 q 382 300 355 274 q 443 325 408 325 q 486 291 478 325 q 483 214 487 270 q 481 136 478 158 q 541 23 489 57 q 641 11 579 -3 q 761 106 739 31 q 831 550 831 349 q 822 836 831 645 q 809 927 821 882 q 794 974 801 950 q 712 1066 773 1050 q 648 1069 696 1070 q 568 1057 584 1066 q 478 934 483 1005 q 489 739 481 810 q 466 684 481 690 q 428 671 440 671 q 379 731 395 671 q 391 910 383 843 q 349 1033 388 994 q 237 1054 313 1054 q 86 994 146 1054 l 87 994 "},"I":{"ha":493,"x_min":52,"x_max":443,"o":"m 436 897 l 423 980 q 373 1044 411 1027 q 320 1050 350 1050 q 118 948 189 1050 l 82 856 q 53 528 54 714 q 83 135 52 353 q 238 8 101 8 q 279 11 249 8 q 404 176 380 38 q 441 658 443 388 q 438 761 441 681 q 436 897 436 842 "},"J":{"ha":689,"x_min":31,"x_max":656,"o":"m 652 577 l 654 577 q 586 1014 628 959 q 498 1053 557 1053 q 372 1028 463 1053 q 302 893 302 983 l 335 663 q 350 406 355 517 q 301 355 334 355 q 260 408 274 355 q 241 478 242 474 q 207 505 230 505 q 148 479 184 505 q 68 413 89 436 q 31 321 31 372 q 52 211 31 279 q 264 29 98 57 q 374 19 319 19 q 560 72 500 19 q 639 210 617 138 q 656 362 656 268 q 654 459 656 376 q 652 577 652 542 "},"K":{"ha":882,"x_min":44,"x_max":837,"o":"m 140 1040 q 74 841 103 1020 q 45 470 45 662 q 140 45 44 118 q 245 14 181 14 q 376 54 323 14 q 408 192 408 105 q 394 330 408 242 l 403 339 q 430 327 425 332 q 519 143 452 253 q 675 -3 610 -10 q 778 45 748 4 q 818 172 818 99 q 727 430 818 266 q 660 545 679 513 q 749 679 719 635 q 837 941 837 816 q 818 1021 837 987 q 611 1107 765 1117 q 481 948 539 1087 q 432 771 432 832 q 433 761 432 763 q 418 750 429 750 q 400 763 406 750 q 406 856 400 778 q 411 963 411 935 q 408 1020 411 984 q 271 1097 376 1097 q 142 1040 184 1097 l 140 1040 "},"L":{"ha":645,"x_min":31,"x_max":610,"o":"m 610 214 l 610 211 q 592 301 605 270 q 534 362 573 349 q 507 366 526 366 q 379 340 430 366 q 381 475 370 349 q 398 743 398 658 q 374 972 398 882 q 334 1036 344 1025 q 249 1061 308 1061 q 217 1059 231 1061 q 118 1028 150 1054 q 61 933 86 1002 q 38 493 31 768 q 37 458 38 482 q 35 411 35 426 q 35 331 35 411 q 324 19 35 19 q 523 59 425 19 q 609 214 594 97 l 610 214 "},"M":{"ha":1076,"x_min":48,"x_max":1028,"o":"m 1028 182 l 1028 184 q 1023 554 1028 331 q 1020 756 1021 655 q 1002 916 1016 866 q 930 1039 982 991 q 816 1085 891 1085 q 707 1066 771 1085 q 590 893 641 1035 q 547 738 554 797 q 272 1050 453 1055 q 127 954 181 1024 q 67 784 74 884 q 48 384 48 497 q 68 200 48 261 q 133 74 78 169 q 244 20 184 20 q 335 48 287 20 q 394 154 383 94 q 394 278 402 200 q 383 407 383 387 q 389 477 383 443 q 504 181 430 257 q 549 166 527 166 q 598 182 577 166 q 681 342 635 211 q 723 466 716 445 q 722 332 734 417 q 707 193 707 223 q 748 63 707 116 q 847 11 788 11 q 884 18 855 11 q 940 31 920 26 q 999 72 976 41 q 1028 182 1028 112 "},"N":{"ha":908,"x_min":50,"x_max":858,"o":"m 844 803 q 829 931 836 900 q 664 1078 797 1078 q 549 1028 590 1078 q 513 918 513 984 q 530 742 513 862 q 553 584 539 674 q 494 784 526 700 q 339 1036 418 994 q 279 1046 309 1046 q 178 1013 223 1046 q 79 867 101 956 q 50 404 50 749 q 78 143 50 227 q 231 5 118 16 q 306 24 267 1 q 359 78 344 46 q 392 257 392 144 q 368 464 392 359 q 576 27 508 65 q 664 14 630 14 q 715 22 693 14 q 858 507 858 75 q 844 805 858 647 l 844 803 "},"O":{"ha":885,"x_min":39,"x_max":846,"o":"m 807 240 l 806 240 q 846 477 846 370 q 769 827 846 602 q 631 1002 734 930 q 419 1074 528 1074 q 373 1070 395 1074 q 56 670 131 1025 q 39 501 39 592 q 142 163 39 302 q 478 0 261 0 q 684 64 595 0 q 809 238 773 128 l 807 240 m 470 338 q 383 489 383 324 q 407 651 383 577 q 462 716 432 724 q 494 643 479 714 q 509 490 509 573 q 470 339 509 346 l 470 338 "},"P":{"ha":779,"x_min":33,"x_max":792,"o":"m 722 926 l 720 926 q 370 1089 611 1089 q 148 1058 271 1089 q 67 974 95 1044 q 39 839 45 919 q 34 738 34 750 l 34 447 q 64 166 33 300 q 115 47 68 90 q 241 4 162 4 q 337 23 294 4 q 394 71 380 42 q 421 177 421 128 q 410 246 421 185 q 404 330 402 304 q 709 459 640 366 q 792 696 792 569 q 720 925 792 813 l 722 926 m 459 679 l 458 681 q 408 617 444 652 q 377 586 389 596 q 370 677 373 645 q 369 739 369 697 q 376 827 369 769 q 475 742 475 818 q 459 679 475 712 "},"Q":{"ha":880,"x_min":37,"x_max":843,"o":"m 837 1 l 840 1 q 843 26 843 18 q 757 193 843 93 q 769 236 757 204 q 780 271 780 268 q 810 547 810 436 q 684 922 809 792 q 584 1016 618 989 q 396 1077 505 1077 q 249 1050 319 1077 q 37 481 37 882 q 65 254 37 361 q 177 75 94 147 q 355 -4 260 3 q 507 1 456 -11 q 663 -105 576 -105 q 692 -102 679 -105 q 837 1 822 -75 m 466 366 q 463 353 467 358 q 451 351 459 349 q 437 362 447 351 q 425 373 428 373 q 383 302 389 355 q 369 295 374 295 q 364 298 366 295 q 361 380 361 350 q 359 365 361 359 q 358 400 359 372 q 357 486 357 436 q 366 592 357 536 q 406 677 376 647 q 429 656 429 678 l 466 366 "},"R":{"ha":863,"x_min":42,"x_max":818,"o":"m 816 144 q 818 169 818 161 q 664 447 818 281 q 742 519 733 507 q 803 708 802 595 q 746 950 805 818 q 460 1089 669 1083 q 225 1054 285 1072 q 80 914 98 1016 q 49 501 57 772 q 46 257 42 261 l 46 203 q 79 56 46 97 q 184 4 103 25 q 233 -1 206 -1 q 358 42 295 -1 q 399 176 399 91 q 395 237 399 202 q 632 1 516 -11 q 750 61 692 8 q 814 144 795 103 l 816 144 m 426 779 q 490 673 490 723 q 454 603 490 636 q 366 551 418 569 q 365 693 366 618 q 369 763 364 757 q 411 782 406 782 q 425 779 417 782 l 426 779 "},"S":{"ha":765,"x_min":38,"x_max":730,"o":"m 290 279 l 289 281 q 266 278 275 278 q 182 310 242 278 q 110 342 123 342 q 61 315 83 342 q 39 251 39 287 q 42 242 39 256 q 49 192 44 227 q 331 -5 69 37 l 334 -7 q 364 -10 353 -10 q 516 27 436 -10 q 727 301 730 125 q 723 370 724 344 q 614 573 716 477 q 425 715 586 600 q 381 792 381 746 q 396 847 381 820 q 430 856 411 856 q 470 831 467 856 q 520 754 477 765 q 565 748 549 748 q 656 809 613 748 l 655 810 q 688 893 689 859 q 664 955 686 922 q 568 1055 613 1028 q 406 1097 496 1097 q 139 986 251 1097 q 38 757 38 885 q 80 583 38 669 q 153 479 113 517 q 244 413 181 452 q 330 354 319 366 q 342 328 342 342 q 291 279 340 291 l 290 279 "},"T":{"ha":816,"x_min":18,"x_max":798,"o":"m 792 904 q 703 1012 779 972 q 566 1062 611 1046 q 387 1078 472 1078 q 108 1020 223 1078 q 18 893 18 975 q 50 788 18 844 q 136 728 74 749 q 229 714 182 714 q 253 716 245 714 q 236 575 241 656 l 229 400 q 223 257 223 246 q 263 76 225 133 q 441 -4 313 0 q 561 94 520 -7 q 594 298 594 174 q 587 407 594 353 q 556 692 553 677 q 656 716 558 697 q 765 748 753 734 q 798 851 797 783 q 794 904 798 884 l 792 904 "},"U":{"ha":912,"x_min":44,"x_max":869,"o":"m 862 919 q 786 1036 835 993 q 678 1081 737 1080 q 566 1004 615 1083 q 541 885 551 963 q 523 741 536 858 q 519 502 517 596 q 475 402 511 440 q 411 391 456 385 q 366 437 374 414 q 361 509 361 468 q 385 699 361 551 q 410 891 410 846 q 406 960 410 927 q 342 1029 385 1002 q 256 1051 300 1055 q 156 1006 206 1046 q 91 916 106 967 q 44 508 44 753 q 74 252 44 344 q 211 63 113 129 q 464 -8 313 -8 q 573 0 517 -8 q 688 74 633 18 q 769 200 743 131 q 869 778 869 466 q 863 920 869 856 l 862 919 "},"V":{"ha":911,"x_min":35,"x_max":876,"o":"m 824 1024 q 666 1084 760 1084 q 561 1061 610 1084 q 462 833 486 1025 q 426 542 437 640 l 408 712 q 357 967 388 903 q 227 1044 320 1039 q 131 1020 181 1047 q 52 927 72 989 q 35 765 35 877 q 78 436 35 610 q 218 93 127 236 q 308 20 246 48 q 437 -7 369 -7 q 467 -4 449 -7 q 651 140 596 16 q 876 881 876 652 q 824 1024 876 987 "},"W":{"ha":1155,"x_min":39,"x_max":1115,"o":"m 128 1027 q 41 630 44 960 q 67 327 39 466 q 144 121 95 189 q 376 -10 225 -20 q 502 76 470 -3 q 534 236 523 128 q 551 399 547 379 q 575 388 561 400 q 584 266 581 355 q 598 140 586 191 q 659 38 613 76 q 784 5 716 5 q 878 34 843 5 q 1021 374 976 144 q 1093 765 1070 635 q 1115 906 1115 876 q 1070 1028 1115 984 q 945 1078 1012 1085 q 888 1062 907 1074 q 833 1006 858 1048 q 735 573 753 871 q 715 562 734 558 q 712 628 703 598 q 704 719 715 645 q 670 850 690 812 q 583 901 641 903 q 467 802 501 886 q 415 656 432 705 q 413 615 415 656 q 399 568 410 581 q 379 580 388 568 l 374 817 q 355 945 361 923 q 221 1061 324 1061 q 128 1027 172 1061 "},"X":{"ha":852,"x_min":37,"x_max":814,"o":"m 805 803 q 728 660 791 748 q 632 526 637 535 q 686 395 626 463 q 769 259 760 312 q 778 167 778 215 q 707 16 779 54 q 621 -3 670 -3 q 494 31 553 -3 q 423 215 425 94 q 403 214 415 230 q 353 98 377 178 q 289 22 336 44 q 193 4 237 4 q 95 39 132 4 q 38 182 37 97 q 103 364 39 270 q 221 526 181 471 q 173 624 222 557 q 114 719 120 694 q 90 892 90 827 q 142 1039 90 986 q 237 1073 174 1073 q 330 1054 285 1073 q 404 947 372 1021 q 436 813 436 873 q 433 784 436 803 q 453 780 447 778 q 474 930 467 880 q 626 1102 500 1102 q 715 1065 666 1102 q 813 886 810 993 q 803 805 814 852 l 805 803 "},"Y":{"ha":813,"x_min":27,"x_max":786,"o":"m 97 1048 q 27 918 27 1013 q 251 376 27 757 q 251 302 252 351 q 249 223 249 266 q 268 80 249 135 q 419 -5 310 -5 q 451 -3 429 -5 q 569 106 534 26 q 600 274 598 173 q 602 447 602 388 q 716 671 682 595 q 786 915 773 802 q 714 1072 786 1024 q 611 1106 675 1106 q 531 1091 569 1106 q 391 756 451 1012 q 350 880 385 765 q 293 999 323 967 q 172 1066 256 1066 q 98 1048 132 1066 l 97 1048 "},"Z":{"ha":847,"x_min":37,"x_max":810,"o":"m 806 957 l 806 960 q 745 1046 791 1008 q 648 1092 699 1084 q 500 1103 633 1103 q 144 1047 231 1103 q 79 888 79 1005 q 94 818 79 844 q 225 745 136 745 q 270 748 256 745 q 306 754 283 750 q 349 758 330 758 q 377 752 366 758 q 256 630 361 694 q 90 413 138 512 q 37 181 42 315 q 128 54 61 84 q 396 5 236 5 q 699 44 541 5 q 790 185 756 74 q 798 234 798 212 q 733 347 797 325 q 632 358 700 358 q 470 332 520 358 q 455 361 444 338 q 810 916 810 664 l 806 957 "},"[":{"ha":453,"x_min":0,"x_max":0,"o":""},"\\":{"ha":453,"x_min":0,"x_max":0,"o":""},"]":{"ha":453,"x_min":0,"x_max":0,"o":""},"^":{"ha":453,"x_min":0,"x_max":0,"o":""},"_":{"ha":802,"x_min":46,"x_max":752,"o":"m 752 49 q 647 91 752 91 q 524 83 618 91 q 458 84 492 80 q 418 89 417 89 q 310 101 381 89 q 159 110 255 110 q 52 56 60 110 q 110 15 46 15 q 207 23 136 15 q 267 23 234 26 q 309 19 287 22 q 370 20 298 19 q 482 16 426 22 q 637 7 576 8 q 752 48 752 5 l 752 49 "},"`":{"ha":323,"x_min":31,"x_max":315,"o":"m 53 1091 q 127 1122 75 1122 q 219 1110 138 1122 q 287 1038 267 1096 q 310 933 298 984 q 289 871 315 900 q 238 842 263 842 q 219 847 231 842 q 197 854 206 852 q 42 1017 82 941 q 42 1076 31 1061 q 53 1091 53 1091 "},"a":{"ha":893,"x_min":41,"x_max":851,"o":"m 829 120 q 851 361 851 233 q 776 866 851 579 q 707 1006 756 946 q 460 1108 624 1108 q 227 1004 308 1108 q 83 696 124 867 q 44 361 54 575 q 41 290 41 305 q 157 5 41 63 l 159 3 q 251 -11 214 -11 q 366 45 327 -11 q 398 161 398 105 q 392 197 395 185 q 516 203 462 206 q 534 112 516 147 q 569 60 539 99 q 678 29 611 29 q 749 37 715 29 q 829 118 817 53 l 829 120 m 485 477 q 458 472 481 477 q 430 467 436 467 q 407 482 414 467 q 417 626 403 500 q 443 814 425 699 q 471 821 462 831 q 485 477 494 587 "},"b":{"ha":824,"x_min":48,"x_max":783,"o":"m 776 328 q 731 489 783 415 q 590 579 678 562 q 682 637 660 617 q 742 757 731 684 q 664 963 738 882 q 441 1073 591 1044 q 357 1078 413 1078 q 69 997 165 1078 q 48 493 48 952 q 68 80 48 106 q 344 0 153 0 q 471 11 410 0 q 663 102 610 61 q 776 328 764 180 m 430 798 q 433 778 433 784 q 392 670 433 741 l 332 632 q 331 812 340 731 q 349 829 339 828 q 369 832 351 832 q 429 797 422 832 l 430 798 m 404 336 q 380 287 389 300 q 317 256 358 261 q 315 298 315 290 q 323 368 315 310 q 327 433 328 415 q 372 451 349 451 q 414 388 414 451 q 404 335 414 366 l 404 336 "},"c":{"ha":792,"x_min":38,"x_max":753,"o":"m 752 350 q 674 466 752 443 q 629 475 651 475 q 524 407 600 475 q 415 338 447 339 q 383 388 385 350 q 380 466 380 426 q 394 761 380 472 l 407 786 q 428 765 425 787 q 433 733 432 737 q 602 647 507 637 q 700 716 662 654 q 727 818 728 763 q 700 925 726 877 q 578 1051 656 1004 q 410 1097 500 1097 q 265 1067 332 1097 q 162 987 197 1036 q 68 771 90 888 q 39 498 39 618 q 210 74 38 225 q 421 1 291 1 q 602 41 517 1 q 753 310 753 112 q 752 330 753 316 q 752 349 752 342 l 752 350 "},"d":{"ha":772,"x_min":45,"x_max":727,"o":"m 727 598 q 611 919 727 767 q 456 1050 542 1010 q 270 1074 374 1074 q 50 1001 84 1074 q 45 824 45 948 q 69 125 45 489 q 159 42 74 74 q 350 16 244 10 q 645 259 546 72 q 727 598 727 410 m 387 720 q 428 599 428 670 q 401 492 428 545 q 335 411 374 438 q 316 733 331 636 q 330 738 317 733 q 350 743 342 743 q 387 720 368 743 "},"e":{"ha":699,"x_min":41,"x_max":656,"o":"m 651 662 q 535 726 605 726 q 436 694 475 726 q 407 719 411 700 q 411 784 408 727 q 422 850 413 829 q 452 848 433 848 q 573 885 530 848 q 617 980 617 922 q 609 1029 617 1008 q 483 1083 590 1083 q 372 1070 430 1083 l 144 1047 q 71 881 89 1009 q 42 489 41 660 q 99 98 44 191 q 177 22 151 34 q 315 -7 238 -7 q 466 30 402 -7 q 579 131 538 71 q 613 251 620 192 q 551 324 607 302 q 460 324 516 339 q 432 373 432 340 q 441 460 444 444 q 482 459 471 463 q 596 498 543 452 q 655 620 655 547 q 651 662 656 641 "},"f":{"ha":675,"x_min":39,"x_max":637,"o":"m 618 598 q 501 679 575 678 q 454 669 494 679 q 404 658 414 658 q 385 664 392 658 q 402 754 402 723 q 468 784 408 768 q 543 810 534 801 q 607 937 607 850 q 542 1059 607 1002 q 383 1078 482 1078 q 129 1033 199 1078 q 49 916 64 1002 q 39 765 44 816 l 63 302 q 158 39 71 128 q 295 7 252 7 q 403 153 403 7 q 395 253 403 167 q 389 357 388 332 q 504 366 479 366 q 605 447 576 383 q 637 534 637 500 q 618 599 637 564 l 618 598 "},"g":{"ha":784,"x_min":39,"x_max":745,"o":"m 741 831 l 738 831 q 568 1054 727 945 q 425 1085 502 1085 q 266 1048 336 1085 q 101 824 162 980 q 39 481 39 667 q 76 234 39 343 q 178 71 113 125 q 392 -7 272 -7 q 466 -1 423 -7 q 617 78 549 10 q 709 225 677 138 q 739 379 739 304 q 714 481 739 443 q 595 520 674 520 q 518 515 576 520 q 447 511 460 511 l 413 483 q 392 410 389 444 q 408 388 394 395 q 436 380 414 383 q 451 344 458 364 q 376 308 436 313 q 353 349 354 330 q 354 384 354 334 q 441 754 354 534 l 449 756 q 463 727 463 745 l 463 689 q 576 610 492 614 q 715 670 669 606 q 745 784 745 711 q 741 831 745 807 "},"h":{"ha":866,"x_min":34,"x_max":831,"o":"m 87 994 q 34 656 34 916 q 38 374 34 539 q 68 166 41 260 q 125 45 91 82 q 229 1 166 1 q 319 12 294 1 q 372 65 355 29 q 376 136 383 90 q 357 233 364 206 q 382 300 355 274 q 443 325 408 325 q 486 291 478 325 q 483 214 487 270 q 481 136 478 158 q 541 23 489 57 q 641 11 579 -3 q 761 106 739 31 q 831 550 831 349 q 822 836 831 645 q 809 927 821 882 q 794 974 801 950 q 712 1066 773 1050 q 648 1069 696 1070 q 568 1057 584 1066 q 478 934 483 1005 q 489 739 481 810 q 466 684 481 690 q 428 671 440 671 q 379 731 395 671 q 391 910 383 843 q 349 1033 388 994 q 237 1054 313 1054 q 86 994 146 1054 l 87 994 "},"i":{"ha":493,"x_min":52,"x_max":443,"o":"m 436 897 l 423 980 q 373 1044 411 1027 q 320 1050 350 1050 q 118 948 189 1050 l 82 856 q 53 528 54 714 q 83 135 52 353 q 238 8 101 8 q 279 11 249 8 q 404 176 380 38 q 441 658 443 388 q 438 761 441 681 q 436 897 436 842 "},"j":{"ha":689,"x_min":31,"x_max":656,"o":"m 652 577 l 654 577 q 586 1014 628 959 q 498 1053 557 1053 q 372 1028 463 1053 q 302 893 302 983 l 335 663 q 350 406 355 517 q 301 355 334 355 q 260 408 274 355 q 241 478 242 474 q 207 505 230 505 q 148 479 184 505 q 68 413 89 436 q 31 321 31 372 q 52 211 31 279 q 264 29 98 57 q 374 19 319 19 q 560 72 500 19 q 639 210 617 138 q 656 362 656 268 q 654 459 656 376 q 652 577 652 542 "},"k":{"ha":882,"x_min":44,"x_max":837,"o":"m 140 1040 q 74 841 103 1020 q 45 470 45 662 q 140 45 44 118 q 245 14 181 14 q 376 54 323 14 q 408 192 408 105 q 394 330 408 242 l 403 339 q 430 327 425 332 q 519 143 452 253 q 675 -3 610 -10 q 778 45 748 4 q 818 172 818 99 q 727 430 818 266 q 660 545 679 513 q 749 679 719 635 q 837 941 837 816 q 818 1021 837 987 q 611 1107 765 1117 q 481 948 539 1087 q 432 771 432 832 q 433 761 432 763 q 418 750 429 750 q 400 763 406 750 q 406 856 400 778 q 411 963 411 935 q 408 1020 411 984 q 271 1097 376 1097 q 142 1040 184 1097 l 140 1040 "},"l":{"ha":645,"x_min":31,"x_max":610,"o":"m 610 214 l 610 211 q 592 301 605 270 q 534 362 573 349 q 507 366 526 366 q 379 340 430 366 q 381 475 370 349 q 398 743 398 658 q 374 972 398 882 q 334 1036 344 1025 q 249 1061 308 1061 q 217 1059 231 1061 q 118 1028 150 1054 q 61 933 86 1002 q 38 493 31 768 q 37 458 38 482 q 35 411 35 426 q 35 331 35 411 q 324 19 35 19 q 523 59 425 19 q 609 214 594 97 l 610 214 "},"m":{"ha":1076,"x_min":48,"x_max":1028,"o":"m 1028 182 l 1028 184 q 1023 554 1028 331 q 1020 756 1021 655 q 1002 916 1016 866 q 930 1039 982 991 q 816 1085 891 1085 q 707 1066 771 1085 q 590 893 641 1035 q 547 738 554 797 q 272 1050 453 1055 q 127 954 181 1024 q 67 784 74 884 q 48 384 48 497 q 68 200 48 261 q 133 74 78 169 q 244 20 184 20 q 335 48 287 20 q 394 154 383 94 q 394 278 402 200 q 383 407 383 387 q 389 477 383 443 q 504 181 430 257 q 549 166 527 166 q 598 182 577 166 q 681 342 635 211 q 723 466 716 445 q 722 332 734 417 q 707 193 707 223 q 748 63 707 116 q 847 11 788 11 q 884 18 855 11 q 940 31 920 26 q 999 72 976 41 q 1028 182 1028 112 "},"n":{"ha":908,"x_min":50,"x_max":858,"o":"m 844 803 q 829 931 836 900 q 664 1078 797 1078 q 549 1028 590 1078 q 513 918 513 984 q 530 742 513 862 q 553 584 539 674 q 494 784 526 700 q 339 1036 418 994 q 279 1046 309 1046 q 178 1013 223 1046 q 79 867 101 956 q 50 404 50 749 q 78 143 50 227 q 231 5 118 16 q 306 24 267 1 q 359 78 344 46 q 392 257 392 144 q 368 464 392 359 q 576 27 508 65 q 664 14 630 14 q 715 22 693 14 q 858 507 858 75 q 844 805 858 647 l 844 803 "},"o":{"ha":885,"x_min":39,"x_max":846,"o":"m 807 240 l 806 240 q 846 477 846 370 q 769 827 846 602 q 631 1002 734 930 q 419 1074 528 1074 q 373 1070 395 1074 q 56 670 131 1025 q 39 501 39 592 q 142 163 39 302 q 478 0 261 0 q 684 64 595 0 q 809 238 773 128 l 807 240 m 470 338 q 383 489 383 324 q 407 651 383 577 q 462 716 432 724 q 494 643 479 714 q 509 490 509 573 q 470 339 509 346 l 470 338 "},"p":{"ha":779,"x_min":33,"x_max":792,"o":"m 722 926 l 720 926 q 370 1089 611 1089 q 148 1058 271 1089 q 67 974 95 1044 q 39 839 45 919 q 34 738 34 750 l 34 447 q 64 166 33 300 q 115 47 68 90 q 241 4 162 4 q 337 23 294 4 q 394 71 380 42 q 421 177 421 128 q 410 246 421 185 q 404 330 402 304 q 709 459 640 366 q 792 696 792 569 q 720 925 792 813 l 722 926 m 459 679 l 458 681 q 408 617 444 652 q 377 586 389 596 q 370 677 373 645 q 369 739 369 697 q 376 827 369 769 q 475 742 475 818 q 459 679 475 712 "},"q":{"ha":880,"x_min":37,"x_max":843,"o":"m 837 1 l 840 1 q 843 26 843 18 q 757 193 843 93 q 769 236 757 204 q 780 271 780 268 q 810 547 810 436 q 684 922 809 792 q 584 1016 618 989 q 396 1077 505 1077 q 249 1050 319 1077 q 37 481 37 882 q 65 254 37 361 q 177 75 94 147 q 355 -4 260 3 q 507 1 456 -11 q 663 -105 576 -105 q 692 -102 679 -105 q 837 1 822 -75 m 466 366 q 463 353 467 358 q 451 351 459 349 q 437 362 447 351 q 425 373 428 373 q 383 302 389 355 q 369 295 374 295 q 364 298 366 295 q 361 380 361 350 q 359 365 361 359 q 358 400 359 372 q 357 486 357 436 q 366 592 357 536 q 406 677 376 647 q 429 656 429 678 l 466 366 "},"r":{"ha":863,"x_min":42,"x_max":818,"o":"m 816 144 q 818 169 818 161 q 664 447 818 281 q 742 519 733 507 q 803 708 802 595 q 746 950 805 818 q 460 1089 669 1083 q 225 1054 285 1072 q 80 914 98 1016 q 49 501 57 772 q 46 257 42 261 l 46 203 q 79 56 46 97 q 184 4 103 25 q 233 -1 206 -1 q 358 42 295 -1 q 399 176 399 91 q 395 237 399 202 q 632 1 516 -11 q 750 61 692 8 q 814 144 795 103 l 816 144 m 426 779 q 490 673 490 723 q 454 603 490 636 q 366 551 418 569 q 365 693 366 618 q 369 763 364 757 q 411 782 406 782 q 425 779 417 782 l 426 779 "},"s":{"ha":765,"x_min":38,"x_max":730,"o":"m 290 279 l 289 281 q 266 278 275 278 q 182 310 242 278 q 110 342 123 342 q 61 315 83 342 q 39 251 39 287 q 42 242 39 256 q 49 192 44 227 q 331 -5 69 37 l 334 -7 q 364 -10 353 -10 q 516 27 436 -10 q 727 301 730 125 q 723 370 724 344 q 614 573 716 477 q 425 715 586 600 q 381 792 381 746 q 396 847 381 820 q 430 856 411 856 q 470 831 467 856 q 520 754 477 765 q 565 748 549 748 q 656 809 613 748 l 655 810 q 688 893 689 859 q 664 955 686 922 q 568 1055 613 1028 q 406 1097 496 1097 q 139 986 251 1097 q 38 757 38 885 q 80 583 38 669 q 153 479 113 517 q 244 413 181 452 q 330 354 319 366 q 342 328 342 342 q 291 279 340 291 l 290 279 "},"t":{"ha":816,"x_min":18,"x_max":798,"o":"m 792 904 q 703 1012 779 972 q 566 1062 611 1046 q 387 1078 472 1078 q 108 1020 223 1078 q 18 893 18 975 q 50 788 18 844 q 136 728 74 749 q 229 714 182 714 q 253 716 245 714 q 236 575 241 656 l 229 400 q 223 257 223 246 q 263 76 225 133 q 441 -4 313 0 q 561 94 520 -7 q 594 298 594 174 q 587 407 594 353 q 556 692 553 677 q 656 716 558 697 q 765 748 753 734 q 798 851 797 783 q 794 904 798 884 l 792 904 "},"u":{"ha":912,"x_min":44,"x_max":869,"o":"m 862 919 q 786 1036 835 993 q 678 1081 737 1080 q 566 1004 615 1083 q 541 885 551 963 q 523 741 536 858 q 519 502 517 595 q 475 402 511 440 q 411 391 456 385 q 366 437 374 414 q 361 509 361 468 q 385 699 361 551 q 410 891 410 846 q 406 960 410 927 q 342 1029 385 1002 q 256 1051 300 1055 q 156 1006 206 1046 q 91 916 106 967 q 44 508 44 753 q 74 252 44 344 q 211 63 113 129 q 464 -8 313 -8 q 573 0 517 -8 q 688 74 633 18 q 769 200 743 131 q 869 778 869 466 q 863 920 869 856 l 862 919 "},"v":{"ha":911,"x_min":35,"x_max":876,"o":"m 824 1024 q 666 1084 760 1084 q 561 1061 610 1084 q 462 833 486 1025 q 426 542 437 640 l 408 712 q 357 967 388 903 q 227 1044 320 1039 q 131 1020 181 1047 q 52 927 72 989 q 35 765 35 877 q 78 436 35 610 q 218 93 127 236 q 308 20 246 48 q 437 -7 369 -7 q 467 -4 449 -7 q 651 140 596 16 q 876 881 876 652 q 824 1024 876 987 "},"w":{"ha":1155,"x_min":39,"x_max":1115,"o":"m 128 1027 q 41 630 44 960 q 67 327 39 466 q 144 121 95 189 q 376 -10 225 -20 q 502 76 470 -3 q 534 236 523 128 q 551 399 547 379 q 575 388 561 400 q 584 266 581 355 q 598 140 586 191 q 659 38 613 76 q 784 5 716 5 q 878 34 843 5 q 1021 374 976 144 q 1093 765 1070 635 q 1115 906 1115 876 q 1070 1028 1115 984 q 945 1078 1012 1085 q 888 1062 907 1074 q 833 1006 858 1048 q 735 573 753 871 q 715 562 734 558 q 712 628 703 598 q 704 719 715 645 q 670 850 690 812 q 583 901 641 903 q 467 802 501 886 q 415 656 432 705 q 413 615 415 656 q 399 568 410 581 q 379 580 388 568 l 374 817 q 355 945 361 923 q 221 1061 324 1061 q 128 1027 172 1061 "},"x":{"ha":852,"x_min":37,"x_max":814,"o":"m 805 803 q 728 660 791 748 q 632 526 637 535 q 686 395 626 463 q 769 259 760 312 q 778 167 778 215 q 707 16 779 54 q 621 -3 670 -3 q 494 31 553 -3 q 423 215 425 94 q 403 214 415 230 q 353 98 377 178 q 289 22 336 44 q 193 4 237 4 q 95 39 132 4 q 38 182 37 97 q 103 364 39 270 q 221 526 181 471 q 173 624 222 557 q 114 719 120 694 q 90 892 90 827 q 142 1039 90 986 q 237 1073 174 1073 q 330 1054 285 1073 q 404 947 372 1021 q 436 813 436 873 q 433 784 436 803 q 453 780 447 778 q 474 930 467 880 q 626 1102 500 1102 q 715 1065 666 1102 q 813 886 810 993 q 803 805 814 852 l 805 803 "},"y":{"ha":813,"x_min":27,"x_max":786,"o":"m 97 1048 q 27 918 27 1013 q 251 376 27 757 q 251 302 252 351 q 249 223 249 266 q 268 80 249 135 q 419 -5 310 -5 q 451 -3 429 -5 q 569 106 534 26 q 600 274 598 173 q 602 447 602 388 q 716 671 682 595 q 786 915 773 802 q 714 1072 786 1024 q 611 1106 675 1106 q 531 1091 569 1106 q 391 756 451 1012 q 350 880 385 765 q 293 999 323 967 q 172 1066 256 1066 q 98 1048 132 1066 l 97 1048 "},"z":{"ha":847,"x_min":37,"x_max":810,"o":"m 806 957 l 806 960 q 745 1046 791 1008 q 648 1092 699 1084 q 500 1103 633 1103 q 144 1047 231 1103 q 79 888 79 1005 q 94 818 79 844 q 225 745 136 745 q 270 748 256 745 q 306 754 283 750 q 349 758 330 758 q 377 752 366 758 q 256 630 361 694 q 90 413 138 512 q 37 181 42 315 q 128 54 61 84 q 396 5 236 5 q 699 44 541 5 q 790 185 756 74 q 798 234 798 212 q 733 347 797 325 q 632 358 700 358 q 470 332 520 358 q 455 361 444 338 q 810 916 810 664 l 806 957 "},"¢":{"ha":260,"x_min":44,"x_max":293,"o":"m 289 941 q 277 971 293 959 q 234 983 261 983 q 191 974 210 983 l 197 1044 q 151 1084 189 1084 q 110 1055 121 1084 q 114 965 102 1033 q 45 856 48 944 q 69 784 44 817 q 133 753 95 752 q 123 685 133 745 q 113 600 113 632 q 133 466 124 496 q 189 415 150 418 q 218 493 217 436 q 206 611 218 520 q 195 719 195 703 q 200 752 197 741 q 257 750 226 735 q 290 795 290 765 q 264 840 290 836 q 233 833 256 842 q 204 824 210 824 q 193 827 203 824 q 153 863 153 839 q 172 897 153 882 q 221 911 191 911 q 244 908 226 911 q 266 904 261 904 q 289 941 281 904 "},"•":{"ha":655,"x_min":163,"x_max":511,"o":"m 167 611 q 163 569 163 590 q 218 441 163 487 q 344 398 268 398 q 482 458 436 396 q 511 575 511 511 q 502 621 511 603 q 437 697 478 674 q 346 723 407 714 q 169 611 197 726 l 167 611 "}," ":{"ha":453,"x_min":0,"x_max":0,"o":""},"“":{"ha":453,"x_min":0,"x_max":0,"o":""},"”":{"ha":453,"x_min":0,"x_max":0,"o":""},"‘":{"ha":453,"x_min":0,"x_max":0,"o":""},"’":{"ha":453,"x_min":0,"x_max":0,"o":""}}}
